<svg version="1.1" xmlns="http://www.w3.org/2000/svg" viewBox="0 0 1415 561.0000000000001" width="1415" height="561.0000000000001" filter="invert(93%) hue-rotate(180deg)">
  <!-- svg-source:excalidraw -->
  
  <defs>
    <style class="style-fonts">
      @font-face {
        font-family: "Virgil";
        src: url("https://excalidraw.com/Virgil.woff2");
      }
      @font-face {
        font-family: "Cascadia";
        src: url("https://excalidraw.com/Cascadia.woff2");
      }
      @font-face {
        font-family: "Assistant";
        src: url("https://excalidraw.com/Assistant-Regular.woff2");
      }
    </style>
    
  </defs>
  <rect x="0" y="0" width="1415" height="561.0000000000001" fill="#ffffff"></rect><g stroke-linecap="round" transform="translate(494 338.6) rotate(0 175.50000000000006 51)"><path d="M25.5 0 C140.98 -0.65, 258.33 -0.71, 325.5 0 M25.5 0 C88.75 0.93, 151.36 1.01, 325.5 0 M325.5 0 C341.54 -0.38, 349.59 8.07, 351 25.5 M325.5 0 C343.91 -0.06, 351.07 7.58, 351 25.5 M351 25.5 C351.27 45.85, 352.12 65.82, 351 76.5 M351 25.5 C349.61 38.96, 351.48 53.84, 351 76.5 M351 76.5 C352.98 93.05, 341.89 100.2, 325.5 102 M351 76.5 C350.34 93.14, 341.93 102.36, 325.5 102 M325.5 102 C220.75 104.54, 115.26 102.05, 25.5 102 M325.5 102 C223.37 101.18, 121.14 102.01, 25.5 102 M25.5 102 C7.44 100.89, -1.56 93.08, 0 76.5 M25.5 102 C8.17 101.94, 1.54 92.73, 0 76.5 M0 76.5 C-1.97 60.7, 0.46 43.61, 0 25.5 M0 76.5 C-0.22 61.62, 0.53 46.17, 0 25.5 M0 25.5 C-1.22 7.88, 8.82 -1.59, 25.5 0 M0 25.5 C-0.01 9.43, 6.69 -2.23, 25.5 0" stroke="#1e1e1e" stroke-width="2" fill="none"></path></g><g transform="translate(530.046875 356) rotate(0 139.453125 33.60000000000002)"><text x="139.453125" y="0" font-family="Cascadia, Segoe UI Emoji" font-size="28px" fill="#1e1e1e" text-anchor="middle" style="white-space: pre;" direction="ltr" dominant-baseline="text-before-edge">Firebase</text><text x="139.453125" y="33.6" font-family="Cascadia, Segoe UI Emoji" font-size="28px" fill="#1e1e1e" text-anchor="middle" style="white-space: pre;" direction="ltr" dominant-baseline="text-before-edge">Realtime Database</text></g><g stroke-linecap="round" transform="translate(1120 338.6) rotate(0 142.5 50)"><path d="M25 0 C113.95 -0.12, 201.22 -0.27, 260 0 M25 0 C85.11 -0.81, 146.05 0.09, 260 0 M260 0 C274.79 -0.43, 283.79 8.24, 285 25 M260 0 C275.86 0.91, 285.35 6.68, 285 25 M285 25 C286.89 41.64, 284.52 56.41, 285 75 M285 25 C284.65 44.3, 284.27 64.98, 285 75 M285 75 C285.83 92.39, 276.97 101.03, 260 100 M285 75 C283.37 91.48, 276.49 100.89, 260 100 M260 100 C170.24 102.38, 78.85 101.84, 25 100 M260 100 C200.99 100.41, 141.71 99.64, 25 100 M25 100 C8.09 98.47, 1.05 90.12, 0 75 M25 100 C8.86 99.41, -1.4 93.24, 0 75 M0 75 C1.02 56.14, -0.09 35.18, 0 25 M0 75 C0.99 55.96, -0.44 36.17, 0 25 M0 25 C0.35 7.17, 8.43 0.91, 25 0 M0 25 C2.27 9.25, 8.96 -0.75, 25 0" stroke="#1e1e1e" stroke-width="2" fill="none"></path></g><g transform="translate(1147.65625 355) rotate(0 114.84375 33.60000000000002)"><text x="114.84375" y="0" font-family="Cascadia, Segoe UI Emoji" font-size="28px" fill="#1e1e1e" text-anchor="middle" style="white-space: pre;" direction="ltr" dominant-baseline="text-before-edge">Firebase</text><text x="114.84375" y="33.6" font-family="Cascadia, Segoe UI Emoji" font-size="28px" fill="#1e1e1e" text-anchor="middle" style="white-space: pre;" direction="ltr" dominant-baseline="text-before-edge">Cloud Function</text></g><g stroke-linecap="round" transform="translate(1236 65.60000000000002) rotate(0 23 26)"><path d="M15.04 2.14 C19.27 -0.24, 24.48 -0.73, 28.96 1.01 C33.44 2.75, 39.1 7.79, 41.93 12.56 C44.75 17.33, 46.41 24.15, 45.9 29.63 C45.4 35.11, 42.6 41.64, 38.9 45.45 C35.2 49.26, 28.82 52.24, 23.69 52.49 C18.56 52.74, 12.09 50.47, 8.14 46.97 C4.2 43.46, 1.11 36.82, 0.02 31.45 C-1.08 26.08, -0.94 19.81, 1.59 14.76 C4.11 9.71, 12.5 3.47, 15.17 1.15 C17.84 -1.17, 17.39 0.54, 17.59 0.84 M30.14 0.13 C34.53 0.98, 38.36 6.17, 40.88 11.02 C43.4 15.87, 45.7 23.4, 45.24 29.23 C44.78 35.06, 41.6 42.28, 38.12 46.01 C34.65 49.74, 29.09 51.34, 24.37 51.62 C19.66 51.89, 13.93 50.66, 9.85 47.67 C5.78 44.69, 0.94 39.15, -0.09 33.71 C-1.12 28.26, 1.54 20.24, 3.65 15 C5.77 9.77, 8.27 4.5, 12.6 2.28 C16.93 0.07, 26.7 1.73, 29.62 1.73 C32.54 1.73, 30.18 2.15, 30.11 2.3" stroke="#1e1e1e" stroke-width="2" fill="none"></path></g><g stroke-linecap="round" transform="translate(1235 115.60000000000002) rotate(0 25.5 49.5)"><path d="M23.7 0.13 C28.15 -1.13, 34.59 1.35, 38.56 5.69 C42.54 10.03, 45.57 18.32, 47.54 26.15 C49.52 33.99, 50.82 43.97, 50.42 52.68 C50.01 61.39, 47.86 71.14, 45.11 78.43 C42.36 85.71, 37.94 93.27, 33.92 96.37 C29.89 99.46, 25.45 98.87, 20.95 96.98 C16.44 95.09, 10.13 91.05, 6.91 85.01 C3.68 78.97, 2.32 69.62, 1.59 60.72 C0.86 51.83, 1.09 40.25, 2.54 31.66 C3.99 23.07, 6.33 14.36, 10.29 9.19 C14.26 4.03, 23.37 1.87, 26.34 0.69 C29.3 -0.5, 28.08 1.5, 28.06 2.1 M12.75 5.54 C16.25 1.13, 22.02 -0.15, 26.53 0.39 C31.03 0.93, 35.91 3.35, 39.79 8.78 C43.68 14.2, 48.13 24.33, 49.82 32.93 C51.52 41.53, 50.92 51.84, 49.95 60.38 C48.99 68.92, 47.34 78.15, 44.03 84.18 C40.73 90.21, 34.73 94.36, 30.13 96.55 C25.52 98.74, 20.35 100.05, 16.41 97.3 C12.46 94.55, 9.29 87.45, 6.47 80.05 C3.65 72.66, 0.12 62.15, -0.51 52.95 C-1.14 43.75, 0.2 32.74, 2.66 24.86 C5.13 16.98, 12.25 8.62, 14.28 5.67 C16.31 2.72, 14.66 6.32, 14.85 7.16" stroke="#1e1e1e" stroke-width="2" fill="none"></path></g><g transform="translate(1238.5625 216.39999999999998) rotate(0 23.4375 12)"><text x="23.4375" y="0" font-family="Cascadia, Segoe UI Emoji" font-size="20px" fill="#1e1e1e" text-anchor="middle" style="white-space: pre;" direction="ltr" dominant-baseline="text-before-edge">User</text></g><g stroke-linecap="round" transform="translate(10 337.6) rotate(0 111 48.5)"><path d="M24.25 0 C59.78 -2.47, 96.46 -1.78, 197.75 0 M24.25 0 C69.01 -0.97, 114.32 -0.42, 197.75 0 M197.75 0 C212.33 1.23, 221.4 8.94, 222 24.25 M197.75 0 C214.37 -2.2, 220.5 8.1, 222 24.25 M222 24.25 C221.84 40.05, 221.1 56.64, 222 72.75 M222 24.25 C222.74 34.33, 221.91 45.48, 222 72.75 M222 72.75 C220.42 90.84, 214.35 95.88, 197.75 97 M222 72.75 C223.41 88.39, 213.32 99.04, 197.75 97 M197.75 97 C135.05 96.79, 72.48 97.46, 24.25 97 M197.75 97 C148.5 97.2, 99.03 97.45, 24.25 97 M24.25 97 C9.87 96.87, -1.7 87.46, 0 72.75 M24.25 97 C8.46 96, 0.99 88.19, 0 72.75 M0 72.75 C0.89 61.45, -1.13 48.13, 0 24.25 M0 72.75 C-0.17 61.51, 0.79 52.01, 0 24.25 M0 24.25 C-0.37 10.08, 8.03 1.65, 24.25 0 M0 24.25 C-2.16 10.23, 6.11 1.65, 24.25 0" stroke="#1e1e1e" stroke-width="2" fill="none"></path></g><g transform="translate(68.265625 364.5) rotate(0 52.734375 21.600000000000023)"><text x="52.734375" y="0" font-family="Cascadia, Segoe UI Emoji" font-size="36px" fill="#1e1e1e" text-anchor="middle" style="white-space: pre;" direction="ltr" dominant-baseline="text-before-edge">ESP32</text></g><g transform="translate(20.6875 404.70886956521736) rotate(0 102.3125 9.110260869565195)"><text x="102.3125" y="0" font-family="Cascadia, Segoe UI Emoji" font-size="15.183768115942026px" fill="#1e1e1e" text-anchor="middle" style="white-space: pre;" direction="ltr" dominant-baseline="text-before-edge">w/ Soil Moisture Sensor</text></g><g stroke-linecap="round" transform="translate(17 140.60000000000002) rotate(0 104 59)"><path d="M131.25 15 C144.91 23.78, 157.07 32.59, 181.75 45 M131.25 15 C149.19 25.89, 167.42 36.06, 181.75 45 M181.75 45 C208.7 59.12, 207.64 61.73, 181.75 75 M181.75 45 C207.09 58.47, 206.13 60.67, 181.75 75 M181.75 75 C170.35 80.94, 161.7 85.49, 131.25 103 M181.75 75 C165.74 83.49, 150.7 92.26, 131.25 103 M131.25 103 C104.49 117.12, 104.27 116.69, 78.75 103 M131.25 103 C104.62 117.11, 106.82 119.86, 78.75 103 M78.75 103 C64.36 98.46, 52.76 88.31, 26.25 75 M78.75 103 C64.91 95.69, 49.98 86.92, 26.25 75 M26.25 75 C1.9 58.28, 1.06 61.38, 26.25 45 M26.25 75 C-1.93 58.45, 1.55 58.16, 26.25 45 M26.25 45 C47.14 35.45, 64.57 23.56, 78.75 15 M26.25 45 C47.44 32.15, 68.61 21.46, 78.75 15 M78.75 15 C106.38 0.89, 103.82 0.46, 131.25 15 M78.75 15 C103.75 -1.87, 106.16 -0.62, 131.25 15" stroke="#1e1e1e" stroke-width="2" fill="none"></path></g><g transform="translate(74.125 180.39999999999998) rotate(0 46.875 19.19999999999999)"><text x="46.875" y="0" font-family="Cascadia, Segoe UI Emoji" font-size="16px" fill="#1e1e1e" text-anchor="middle" style="white-space: pre;" direction="ltr" dominant-baseline="text-before-edge">Deep Sleep</text><text x="46.875" y="19.2" font-family="Cascadia, Segoe UI Emoji" font-size="16px" fill="#1e1e1e" text-anchor="middle" style="white-space: pre;" direction="ltr" dominant-baseline="text-before-edge">Cycle</text></g><g stroke-linecap="round"><g stroke-opacity="0.4" fill-opacity="0.4" transform="translate(16 516.6) rotate(0 693 0)"><path d="M0.76 0.15 C231.53 -0.08, 1154.76 -1.05, 1385.44 -0.97" stroke="#1e1e1e" stroke-width="2.5" fill="none" stroke-dasharray="8 10"></path></g><g stroke-opacity="0.4" fill-opacity="0.4" transform="translate(16 516.6) rotate(0 693 0)"><path d="M1361.95 7.59 C1370.74 3.38, 1377.44 -0.78, 1385.44 -0.97" stroke="#1e1e1e" stroke-width="2.5" fill="none"></path></g><g stroke-opacity="0.4" fill-opacity="0.4" transform="translate(16 516.6) rotate(0 693 0)"><path d="M1361.94 -9.51 C1370.78 -7.49, 1377.49 -5.41, 1385.44 -0.97" stroke="#1e1e1e" stroke-width="2.5" fill="none"></path></g></g><mask></mask><g stroke-opacity="0.7" fill-opacity="0.7" transform="translate(617.375 517.4000000000001) rotate(0 65.625 16.80000000000001)"><text x="65.625" y="0" font-family="Cascadia, Segoe UI Emoji" font-size="28px" fill="#1e1e1e" text-anchor="middle" style="white-space: pre;" direction="ltr" dominant-baseline="text-before-edge">Timeline</text></g><g stroke-linecap="round"><g transform="translate(151 336.6) rotate(0 0 -47.5)"><path d="M0.8 -0.68 C0.99 -16.25, 1.1 -78.7, 1.11 -94.42 M-0.24 1.57 C-0.11 -14.26, 0.61 -80.36, 0.74 -96.25" stroke="#1e1e1e" stroke-width="2" fill="none"></path></g><g transform="translate(151 336.6) rotate(0 0 -47.5)"><path d="M9.06 -72.67 C5.64 -77.8, 5.26 -85.24, 0.74 -96.25 M9.06 -72.67 C6.09 -79.55, 4.86 -85.69, 0.74 -96.25" stroke="#1e1e1e" stroke-width="2" fill="none"></path></g><g transform="translate(151 336.6) rotate(0 0 -47.5)"><path d="M-8.04 -72.84 C-6.36 -78.03, -1.65 -85.42, 0.74 -96.25 M-8.04 -72.84 C-5.94 -79.84, -2.11 -85.93, 0.74 -96.25" stroke="#1e1e1e" stroke-width="2" fill="none"></path></g></g><mask></mask><g stroke-linecap="round"><g transform="translate(95 244.60000000000002) rotate(0 0 46)"><path d="M-0.39 -0.22 C-0.5 14.88, -1.12 76.31, -0.96 91.66 M1.61 -1.38 C1.89 14.41, 1.49 77.26, 1.25 93.02" stroke="#1e1e1e" stroke-width="2" fill="none"></path></g><g transform="translate(95 244.60000000000002) rotate(0 0 46)"><path d="M-7.07 69.44 C-4.93 74.36, -2.85 83.45, 1.25 93.02 M-7.07 69.44 C-3.63 75.49, -2.26 83.88, 1.25 93.02" stroke="#1e1e1e" stroke-width="2" fill="none"></path></g><g transform="translate(95 244.60000000000002) rotate(0 0 46)"><path d="M10.03 69.61 C7.46 74.42, 4.85 83.47, 1.25 93.02 M10.03 69.61 C8.49 75.48, 4.89 83.82, 1.25 93.02" stroke="#1e1e1e" stroke-width="2" fill="none"></path></g></g><mask></mask><g stroke-linecap="round"><g transform="translate(233 391.6) rotate(0 129.5 0)"><path d="M-1.07 -0.27 C42.07 -0.13, 214.69 -0.3, 257.89 -0.11 M0.56 -1.46 C44.14 -1.05, 216.68 1.3, 260.02 1.37" stroke="#1e1e1e" stroke-width="2" fill="none"></path></g><g transform="translate(233 391.6) rotate(0 129.5 0)"><path d="M236.45 9.72 C241.26 6.24, 246.72 4.8, 260.02 1.37 M236.45 9.72 C244.5 7.35, 253.35 3.08, 260.02 1.37" stroke="#1e1e1e" stroke-width="2" fill="none"></path></g><g transform="translate(233 391.6) rotate(0 129.5 0)"><path d="M236.6 -7.38 C241.24 -7.09, 246.67 -4.76, 260.02 1.37 M236.6 -7.38 C244.45 -3.42, 253.24 -1.36, 260.02 1.37" stroke="#1e1e1e" stroke-width="2" fill="none"></path></g></g><mask></mask><g stroke-linecap="round"><g transform="translate(875 389.80480442528733) rotate(0 122 0)"><path d="M0.24 1.17 C41.06 1.33, 203.7 0.55, 244.3 0.35 M-1.1 0.74 C39.66 0.57, 202.84 -1.68, 243.51 -1.59" stroke="#1e1e1e" stroke-width="2" fill="none"></path></g><g transform="translate(875 389.80480442528733) rotate(0 122 0)"><path d="M220.08 7.12 C227.8 5.45, 232.15 2.54, 243.51 -1.59 M220.08 7.12 C227.21 5.4, 234.56 2.05, 243.51 -1.59" stroke="#1e1e1e" stroke-width="2" fill="none"></path></g><g transform="translate(875 389.80480442528733) rotate(0 122 0)"><path d="M219.96 -9.98 C227.63 -7.47, 232.01 -6.21, 243.51 -1.59 M219.96 -9.98 C227.12 -6.57, 234.51 -4.8, 243.51 -1.59" stroke="#1e1e1e" stroke-width="2" fill="none"></path></g></g><mask></mask><g transform="translate(870.5 358) rotate(0 112.5 9.600000000000023)"><text x="112.5" y="0" font-family="Cascadia, Segoe UI Emoji" font-size="16px" fill="#1e1e1e" text-anchor="middle" style="white-space: pre;" direction="ltr" dominant-baseline="text-before-edge">Read latest sensor value</text></g><g transform="translate(248.1875 360) rotate(0 107.8125 9.600000000000023)"><text x="107.8125" y="0" font-family="Cascadia, Segoe UI Emoji" font-size="16px" fill="#1e1e1e" text-anchor="middle" style="white-space: pre;" direction="ltr" dominant-baseline="text-before-edge">Push sensor value to DB</text></g><g stroke-linecap="round"><g transform="translate(1107 389.6) rotate(0 -131.5 0)"><path d="M-0.08 -1.1 C-43.81 -0.9, -219.14 0.57, -262.97 0.82 M-1.59 0.94 C-45.42 0.83, -220.19 -0.43, -263.9 -0.88" stroke="#1e1e1e" stroke-width="2" fill="none"></path></g><g transform="translate(1107 389.6) rotate(0 -131.5 0)"><path d="M-240.33 -9.23 C-248.1 -7.09, -250.84 -5.1, -263.9 -0.88 M-240.33 -9.23 C-248.89 -6.51, -256.63 -3.41, -263.9 -0.88" stroke="#1e1e1e" stroke-width="2" fill="none"></path></g><g transform="translate(1107 389.6) rotate(0 -131.5 0)"><path d="M-240.48 7.87 C-248.16 5.71, -250.86 3.4, -263.9 -0.88 M-240.48 7.87 C-248.98 4.91, -256.67 2.33, -263.9 -0.88" stroke="#1e1e1e" stroke-width="2" fill="none"></path></g></g><mask></mask><g transform="translate(1148.125 281.6) rotate(0 121.875 19.19999999999999)"><text x="121.875" y="0" font-family="Cascadia, Segoe UI Emoji" font-size="16px" fill="#1e1e1e" text-anchor="middle" style="white-space: pre;" direction="ltr" dominant-baseline="text-before-edge">Send email if sensor value</text><text x="121.875" y="19.2" font-family="Cascadia, Segoe UI Emoji" font-size="16px" fill="#1e1e1e" text-anchor="middle" style="white-space: pre;" direction="ltr" dominant-baseline="text-before-edge">indicates dry soil.</text></g><g stroke-linecap="round"><g transform="translate(1264 273.6) rotate(0 0 -15.5)"><path d="M0.36 0.39 C0.39 -4.92, 0.04 -26.08, -0.08 -31.4 M-0.13 0.11 C-0.14 -5.17, -0.69 -25.68, -0.55 -30.9" stroke="#1e1e1e" stroke-width="2" fill="none"></path></g><g transform="translate(1264 273.6) rotate(0 0 -15.5)"><path d="M4.8 -16.35 C3.97 -20.02, 1.55 -24.02, -0.55 -30.9 M4.8 -16.35 C3.51 -19.06, 2.43 -22.39, -0.55 -30.9" stroke="#1e1e1e" stroke-width="2" fill="none"></path></g><g transform="translate(1264 273.6) rotate(0 0 -15.5)"><path d="M-5.81 -16.32 C-4.02 -20.03, -3.84 -24.04, -0.55 -30.9 M-5.81 -16.32 C-4.91 -19.05, -3.82 -22.38, -0.55 -30.9" stroke="#1e1e1e" stroke-width="2" fill="none"></path></g></g><mask></mask><g stroke-linecap="round"><g transform="translate(1266 319.6) rotate(0 0 9)"><path d="M-0.23 -0.48 C-0.26 2.52, -0.39 14.78, -0.27 17.79 M0.65 0.47 C0.82 3.56, 0.87 15.46, 0.82 18.38" stroke="#1e1e1e" stroke-width="2" fill="none"></path></g></g><mask></mask><g stroke-opacity="0.7" fill-opacity="0.7" transform="translate(526.890625 10) rotate(0 137.109375 43.19999999999999)"><text x="137.109375" y="0" font-family="Cascadia, Segoe UI Emoji" font-size="36px" fill="#1e1e1e" text-anchor="middle" style="white-space: pre;" direction="ltr" dominant-baseline="text-before-edge">Plant Tracker</text><text x="137.109375" y="43.199999999999996" font-family="Cascadia, Segoe UI Emoji" font-size="36px" fill="#1e1e1e" text-anchor="middle" style="white-space: pre;" direction="ltr" dominant-baseline="text-before-edge"></text></g><g stroke-opacity="0.7" fill-opacity="0.7" transform="translate(531.234375 57.400000000000034) rotate(0 134.765625 11.999999999999972)"><text x="134.765625" y="0" font-family="Cascadia, Segoe UI Emoji" font-size="20px" fill="#1e1e1e" text-anchor="middle" style="white-space: pre;" direction="ltr" dominant-baseline="text-before-edge">Soil Moisture Montoring</text></g></svg>